<svg width="275" height="27" viewBox="0 0 275 27" fill="none" xmlns="http://www.w3.org/2000/svg">
<path fill-rule="evenodd" clip-rule="evenodd" d="M94.0717 5.84393C93.69 8.24952 92.1306 9.63553 88.8853 9.63553C85.6239 9.63553 84.0805 8.24952 83.6986 5.84393L87.3737 5.31836C87.5489 6.22641 87.9942 6.79985 88.8853 6.79985C89.7763 6.79985 90.2216 6.22641 90.3966 5.31836L94.0717 5.84393ZM170.707 20.3252H174.366V14.3192H171.646V14.5423C171.598 16.9797 171.2 18.7321 170.707 20.3252ZM179.202 10.48V20.3251H181L180.889 27H176.434V24.2122H169.148L169.068 27H164.582V20.3251H166.141C166.921 18.079 167.302 15.8964 167.302 11.1489V10.48H179.202ZM72.3555 20.4207C70.6532 20.4207 69.4443 19.0175 69.4443 17.362C69.4443 15.6751 70.5579 14.3032 72.3077 14.3032C73.9942 14.3032 75.2192 15.7067 75.2192 17.362C75.2192 19.0491 74.1056 20.4207 72.3555 20.4207ZM72.3555 10.1772C67.9487 10.1772 64.7506 13.4591 64.7506 17.3619C64.7506 21.3129 67.9167 24.5466 72.3076 24.5466C76.7144 24.5466 79.8964 21.2651 79.8964 17.3619C79.8964 13.4112 76.7304 10.1772 72.3555 10.1772ZM152.49 17.3779C152.49 19.194 153.731 20.4845 155.306 20.4845C156.85 20.4845 158.09 19.194 158.09 17.3303C158.09 15.5142 156.85 14.2079 155.306 14.2079C153.731 14.2079 152.49 15.4821 152.49 17.3779ZM157.995 12.1526V10.4799H162.8V24.2121H157.995V22.3803C157.057 23.5272 155.895 24.5149 153.843 24.5149C150.566 24.5149 147.75 21.8066 147.75 17.3621C147.75 12.9015 150.566 10.1771 153.811 10.1771C155.895 10.1771 157.104 11.1173 157.995 12.1526ZM86.5784 17.3939C86.5944 16.5655 86.5944 15.5778 86.5944 14.8928V10.4799H81.9329V24.2121H86.3717L90.9534 17.2981C90.9373 18.0788 90.9373 18.8754 90.9373 19.7355V24.2121H95.5992V10.4799H91.1604L86.5784 17.3939ZM132.19 19.8951C133.049 19.8951 133.94 19.2737 133.956 13.1244L133.988 10.48H145.793V24.2122H140.972V14.3192H138.204V14.7495C138.061 23.0493 136.215 24.3874 133.304 24.3874C132.843 24.3874 131.936 24.3077 131.331 24.2122H125.62L121.834 18.3496V24.2122H117.029V10.48H121.834V15.7689L125.508 10.48H131.061L126.161 16.7248L131.188 24.0528L131.411 19.8311C131.936 19.8951 132.063 19.8951 132.19 19.8951ZM108.136 19.911C105.733 19.911 103.856 18.0949 103.856 15.291C103.856 12.7421 105.654 10.7029 108.247 10.7029C109.79 10.7029 110.951 11.3403 111.922 12.6942L115.565 10.034C113.831 7.54869 111.381 6.08325 108.024 6.08325C102.599 6.08325 98.6856 10.241 98.6856 15.291C98.6856 20.7075 102.631 24.5467 107.785 24.5467C111.667 24.5467 113.895 22.874 115.661 20.4844L111.954 17.7763C110.984 19.1781 109.822 19.911 108.136 19.911ZM53.9802 13.3316C54.3782 12.5351 57.2098 6.3858 57.2098 6.3858H60.3758L63.7803 24.2122H58.9599L57.4007 15.5139L53.0576 24.8017H52.5007L48.1415 15.5939L46.5826 24.2122H41.7939L45.1985 6.3858H48.3482C48.3482 6.3858 51.0847 12.2799 51.6259 13.4111C52.1668 14.5422 52.787 15.9918 52.787 15.9918C52.787 15.9918 53.5824 14.1281 53.9802 13.3316Z" fill="#2855AF"/>
<path d="M199.544 24.1441C198.976 24.1441 198.452 24.0401 197.972 23.8321C197.5 23.6161 197.112 23.3121 196.808 22.9201L197.888 21.6241C198.344 22.2401 198.864 22.5481 199.448 22.5481C200.24 22.5481 200.636 22.0841 200.636 21.1561V17.1601H197.684V15.6001H202.568V21.0481C202.568 22.0801 202.312 22.8561 201.8 23.3761C201.288 23.8881 200.536 24.1441 199.544 24.1441Z" fill="#2855AF"/>
<path d="M207.248 24.1441C206.584 24.1441 205.94 24.0561 205.316 23.8801C204.7 23.6961 204.204 23.4601 203.828 23.1721L204.488 21.7081C204.848 21.9721 205.276 22.1841 205.772 22.3441C206.268 22.5041 206.764 22.5841 207.26 22.5841C207.812 22.5841 208.22 22.5041 208.484 22.3441C208.748 22.1761 208.88 21.9561 208.88 21.6841C208.88 21.4841 208.8 21.3201 208.64 21.1921C208.488 21.0561 208.288 20.9481 208.04 20.8681C207.8 20.7881 207.472 20.7001 207.056 20.6041C206.416 20.4521 205.892 20.3001 205.484 20.1481C205.076 19.9961 204.724 19.7521 204.428 19.4161C204.14 19.0801 203.996 18.6321 203.996 18.0721C203.996 17.5841 204.128 17.1441 204.392 16.7521C204.656 16.3521 205.052 16.0361 205.58 15.8041C206.116 15.5721 206.768 15.4561 207.536 15.4561C208.072 15.4561 208.596 15.5201 209.108 15.6481C209.62 15.7761 210.068 15.9601 210.452 16.2001L209.852 17.6761C209.076 17.2361 208.3 17.0161 207.524 17.0161C206.98 17.0161 206.576 17.1041 206.312 17.2801C206.056 17.4561 205.928 17.6881 205.928 17.9761C205.928 18.2641 206.076 18.4801 206.372 18.6241C206.676 18.7601 207.136 18.8961 207.752 19.0321C208.392 19.1841 208.916 19.3361 209.324 19.4881C209.732 19.6401 210.08 19.8801 210.368 20.2081C210.664 20.5361 210.812 20.9801 210.812 21.5401C210.812 22.0201 210.676 22.4601 210.404 22.8601C210.14 23.2521 209.74 23.5641 209.204 23.7961C208.668 24.0281 208.016 24.1441 207.248 24.1441Z" fill="#2855AF"/>
<path d="M216.209 24.1441C215.337 24.1441 214.549 23.9561 213.845 23.5801C213.149 23.2041 212.601 22.6881 212.201 22.0321C211.809 21.3681 211.613 20.6241 211.613 19.8001C211.613 18.9761 211.809 18.2361 212.201 17.5801C212.601 16.9161 213.149 16.3961 213.845 16.0201C214.549 15.6441 215.337 15.4561 216.209 15.4561C217.081 15.4561 217.865 15.6441 218.561 16.0201C219.257 16.3961 219.805 16.9161 220.205 17.5801C220.605 18.2361 220.805 18.9761 220.805 19.8001C220.805 20.6241 220.605 21.3681 220.205 22.0321C219.805 22.6881 219.257 23.2041 218.561 23.5801C217.865 23.9561 217.081 24.1441 216.209 24.1441ZM216.209 22.4881C216.705 22.4881 217.153 22.3761 217.553 22.1521C217.953 21.9201 218.265 21.6001 218.489 21.1921C218.721 20.7841 218.837 20.3201 218.837 19.8001C218.837 19.2801 218.721 18.8161 218.489 18.4081C218.265 18.0001 217.953 17.6841 217.553 17.4601C217.153 17.2281 216.705 17.1121 216.209 17.1121C215.713 17.1121 215.265 17.2281 214.865 17.4601C214.465 17.6841 214.149 18.0001 213.917 18.4081C213.693 18.8161 213.581 19.2801 213.581 19.8001C213.581 20.3201 213.693 20.7841 213.917 21.1921C214.149 21.6001 214.465 21.9201 214.865 22.1521C215.265 22.3761 215.713 22.4881 216.209 22.4881Z" fill="#2855AF"/>
<path d="M229.97 15.6001V24.0001H228.374L224.186 18.9001V24.0001H222.266V15.6001H223.874L228.05 20.7001V15.6001H229.97Z" fill="#2855AF"/>
<path d="M240.887 22.2001H236.987L236.243 24.0001H234.251L237.995 15.6001H239.915L243.671 24.0001H241.631L240.887 22.2001ZM240.275 20.7241L238.943 17.5081L237.611 20.7241H240.275Z" fill="#2855AF"/>
<path d="M248.179 15.6001C248.923 15.6001 249.567 15.7241 250.111 15.9721C250.663 16.2201 251.087 16.5721 251.383 17.0281C251.679 17.4841 251.827 18.0241 251.827 18.6481C251.827 19.2641 251.679 19.8041 251.383 20.2681C251.087 20.7241 250.663 21.0761 250.111 21.3241C249.567 21.5641 248.923 21.6841 248.179 21.6841H246.487V24.0001H244.543V15.6001H248.179ZM248.071 20.1001C248.655 20.1001 249.099 19.9761 249.403 19.7281C249.707 19.4721 249.859 19.1121 249.859 18.6481C249.859 18.1761 249.707 17.8161 249.403 17.5681C249.099 17.3121 248.655 17.1841 248.071 17.1841H246.487V20.1001H248.071Z" fill="#2855AF"/>
<path d="M253.215 15.6001H255.159V24.0001H253.215V15.6001Z" fill="#2855AF"/>
<path d="M263.263 15.6001V24.0001H261.319V17.1601H259.639V15.6001H263.263Z" fill="#2855AF"/>
<path d="M265.826 24.0961C265.498 24.0961 265.222 23.9841 264.998 23.7601C264.774 23.5361 264.662 23.2561 264.662 22.9201C264.662 22.5761 264.774 22.3001 264.998 22.0921C265.222 21.8761 265.498 21.7681 265.826 21.7681C266.154 21.7681 266.43 21.8761 266.654 22.0921C266.878 22.3001 266.99 22.5761 266.99 22.9201C266.99 23.2561 266.878 23.5361 266.654 23.7601C266.43 23.9841 266.154 24.0961 265.826 24.0961Z" fill="#2855AF"/>
<path d="M274.256 22.4161V24.0001H267.908V22.7401L271.148 19.6801C271.492 19.3521 271.724 19.0721 271.844 18.8401C271.964 18.6001 272.024 18.3641 272.024 18.1321C272.024 17.7961 271.908 17.5401 271.676 17.3641C271.452 17.1801 271.12 17.0881 270.68 17.0881C270.312 17.0881 269.98 17.1601 269.684 17.3041C269.388 17.4401 269.14 17.6481 268.94 17.9281L267.524 17.0161C267.852 16.5281 268.304 16.1481 268.88 15.8761C269.456 15.5961 270.116 15.4561 270.86 15.4561C271.484 15.4561 272.028 15.5601 272.492 15.7681C272.964 15.9681 273.328 16.2561 273.584 16.6321C273.848 17.0001 273.98 17.4361 273.98 17.9401C273.98 18.3961 273.884 18.8241 273.692 19.2241C273.5 19.6241 273.128 20.0801 272.576 20.5921L270.644 22.4161H274.256Z" fill="#2855AF"/>
<path fill-rule="evenodd" clip-rule="evenodd" d="M4.75708 25.6642C9.09748 25.6642 12.379 20.0056 15.3209 13.8277C16.7368 10.8326 18.0571 7.69447 19.3775 5.03398C20.8274 2.08289 22.3146 0 24.1344 0C25.6769 0 27.1285 1.24735 28.5732 3.20183C31.5684 7.25968 34.1573 14.1316 34.1573 18.6386C34.1573 22.4142 32.2165 25.6642 28.239 25.6642H4.75708Z" fill="#64CDFF"/>
<path fill-rule="evenodd" clip-rule="evenodd" d="M15.3207 13.8277C12.3393 7.80904 10.9895 3.39307 8.35245 3.39307C6.71374 3.39307 4.8683 5.11368 3.19781 7.9333C1.4082 10.9254 0 15.1473 0 19.6903C0 23.2777 1.75341 25.6642 4.75691 25.6642C9.09621 25.6642 12.3789 20.0056 15.3207 13.8277Z" fill="#2855AF"/>
</svg>
