<svg width="16" height="10" viewBox="0 0 16 10" fill="none" xmlns="http://www.w3.org/2000/svg">
<path d="M1.33333 10H14.6667C15.125 10 15.5 9.625 15.5 9.16667C15.5 8.70833 15.125 8.33333 14.6667 8.33333H1.33333C0.875 8.33333 0.5 8.70833 0.5 9.16667C0.5 9.625 0.875 10 1.33333 10ZM1.33333 5.83333H14.6667C15.125 5.83333 15.5 5.45833 15.5 5C15.5 4.54167 15.125 4.16667 14.6667 4.16667H1.33333C0.875 4.16667 0.5 4.54167 0.5 5C0.5 5.45833 0.875 5.83333 1.33333 5.83333ZM0.5 0.833333C0.5 1.29167 0.875 1.66667 1.33333 1.66667H14.6667C15.125 1.66667 15.5 1.29167 15.5 0.833333C15.5 0.375 15.125 0 14.6667 0H1.33333C0.875 0 0.5 0.375 0.5 0.833333Z" fill="#2855AF"/>
</svg>
